<svg width="521" height="523" viewBox="0 0 521 523" fill="none" xmlns="http://www.w3.org/2000/svg">
<rect y="309" width="512" height="214" rx="38" fill="white"/>
<circle cx="109.5" cy="117.5" r="109.5" fill="white"/>
<path d="M295.75 47.75C287.052 39.0515 287.052 24.9485 295.75 16.25V16.25C304.448 7.55151 318.552 7.55151 327.25 16.25L505.25 194.25C513.948 202.948 513.948 217.052 505.25 225.75V225.75C496.552 234.448 482.448 234.448 473.75 225.75L295.75 47.75Z" fill="white"/>
<path d="M473.75 16.75C482.448 8.05154 496.552 8.05152 505.25 16.75V16.75C513.948 25.4485 513.948 39.5515 505.25 48.25L327.25 226.25C318.552 234.948 304.448 234.948 295.75 226.25V226.25C287.052 217.552 287.052 203.448 295.75 194.75L473.75 16.75Z" fill="white"/>
</svg>
