<svg width="1058" height="156" viewBox="0 0 1058 156" fill="none" xmlns="http://www.w3.org/2000/svg">
<path d="M994.953 105.242C994.335 113.426 995.349 125.186 1004.32 131.717C1010.16 136.18 1022.99 138.675 1031.03 135.896C1038.9 132.909 1041.73 129.687 1047.97 123.124C1047.97 123.124 1049.14 122.703 1049.49 122.933C1050.19 123.393 1049.89 124.295 1049.89 124.295C1046.72 136.487 1037.16 150.342 1021.09 155.901C1008.53 160.383 991.399 157.741 980.531 149.853C967.415 140.379 962.456 124.01 962.918 110.928C963.311 98.3995 970.192 77.2737 986.078 67.0009C999.729 58.146 1018.32 59.6505 1029.2 64.349C1040.98 69.3448 1048.49 77.0138 1051.15 90.6632C1051.84 94.3124 1053.11 108.545 1051.16 110.747C1049.48 112.232 1043.05 111.077 1033.06 109.865L994.953 105.242ZM1016.51 97.7219C1019.47 98.081 1021.96 96.1306 1022.99 93.8157C1023.52 92.5658 1023.7 91.086 1023.95 89.0513C1024.64 83.3171 1024.73 76.3832 1018.85 72.2906C1015.39 69.807 1010.89 69.8233 1007.5 71.4765C997.529 76.2736 996.58 88.7342 996.535 95.2981C1000.79 95.8143 1016.51 97.7219 1016.51 97.7219Z" fill="white"/>
<path d="M920.269 66.4065C920.506 66.9459 920.558 67.5025 920.053 68.1108C917.11 72.6882 915.987 76.7222 917.717 81.2399C918.666 83.3974 934.311 112.821 934.311 112.821L941.476 93.2555C946.392 79.6996 948.978 73.2841 941.187 65.9609C941.187 65.9609 940.544 65.085 940.846 64.3084C941.165 63.7173 942.65 63.5795 942.65 63.5795L964.357 61.5635C966.398 61.3739 966.786 61.525 967.226 62.2327C968.054 63.0914 966.674 64.3424 966.674 64.3424C962.751 68.4494 960.429 71.6592 958.418 78.2085L932.488 155.657C931.581 157.987 930.908 158.798 928.867 158.987C925.713 159.28 924.678 156.195 923.087 153.162L882.816 82.2357C881.258 79.5733 880.21 78.3608 878.722 76.4405C876.423 73.8471 874.076 72.7551 874.477 71.0336C874.93 69.8687 875.858 69.7826 879.197 69.4724L916.304 66.0262C918.345 65.8367 919.812 65.5133 920.269 66.4065Z" fill="white"/>
<path d="M866.991 69.344V136.423C866.991 148.535 868.668 152.261 873.14 155.429C874.445 156.174 875.935 157.106 877.612 157.851C878.358 158.224 878.917 159.156 878.73 160.087C878.358 161.205 876.681 161.205 876.681 161.205H826.185C826.185 161.205 824.694 161.205 824.322 160.087C824.135 159.156 824.694 158.224 825.44 157.851C826.93 157.106 828.607 156.174 829.725 155.429C834.383 152.261 835.874 148.535 835.874 136.423V103.629C835.874 91.7037 834.383 87.7908 829.725 84.6231C828.607 83.8778 826.93 83.1325 825.44 82.3872C824.694 81.8282 824.135 81.0828 824.322 80.3375C824.694 79.2195 826.185 79.0332 826.185 79.0332L862.52 66.3627C866.246 65.0584 866.991 66.1763 866.991 69.344ZM835.315 38.2267C835.315 28.7238 842.955 21.2706 852.458 21.2706C861.961 21.2706 869.6 28.7238 869.6 38.2267C869.6 47.7296 861.961 55.3691 852.458 55.3691C842.955 55.3691 835.315 47.7296 835.315 38.2267Z" fill="white"/>
<path d="M764.626 32.2524C764.936 30.4438 767.285 29.8491 767.788 31.836L775.885 63.8072L793.948 59.2327L796.006 67.361L777.943 71.9355L788.648 114.203C791.347 124.86 792.319 132.494 799.33 134.371C805.254 135.754 809.943 132.259 814.404 127.862C815.124 126.911 815.709 126.186 816.343 126.41C817.202 126.769 817.475 127.084 817.161 128.125C816.807 130.521 816.051 134.365 812.633 139.843C809.981 144.552 806.195 147.817 802.317 150.721C794.516 156.349 785.172 159.677 776.757 156.81C764.949 152.688 762.646 138.279 760.907 131.415L747.778 79.575L739.831 81.5878L738.87 77.7946C755.055 65.046 758.69 56.6292 764.626 32.2524Z" fill="white"/>
<path d="M735.911 140.64C729.967 151.193 720.773 157.522 712.776 158.424C704.035 159.34 698.596 157.583 691.868 147.092C677.716 157.246 667.908 160.792 655.357 157.496C648.983 155.571 643.135 151.958 639.819 144.382C637.083 137.912 636.543 129.35 640.858 121.252C648.219 106.944 672.716 101.62 680.883 99.9692C680.883 99.9692 688.123 98.5231 689.979 98.1141C690.103 94.9434 691.398 75.3496 686.858 71.8974C685.722 70.9878 684.217 70.2717 681.63 71.4405C676.823 73.3981 677.294 78.4208 672.994 87.2641C670.316 93.2801 665.911 96.7209 660.146 97.3926C655.872 98.0352 650.634 97.0194 647.201 92.9865C644.535 90.0567 643.516 85.6038 644.729 80.9209C647.345 71.7378 655.834 67.4719 665.277 64.3054C677.127 60.3465 701.893 59.3033 711.909 66.3759C719.85 72.1844 719.283 81.3275 719.531 93.9955L720.161 126.225C720.292 132.931 720.018 137.969 723.232 140.329C724.931 141.414 726.238 141.574 728.656 141.341C729.771 141.133 731.992 140.344 732.912 139.767C735.484 137.853 736.258 139.328 735.911 140.64ZM673.518 114.091C668.583 119.033 667.041 125.958 668.078 131.343C669.101 135.982 671.584 139.102 675.712 140.512C679.653 141.926 685.217 140.512 687.599 138.416C690.17 136.502 690.707 135.373 690.693 134.628L690.216 110.223C690.187 108.733 689.237 107.82 688.492 107.834C682.158 107.958 676.996 110.854 673.518 114.091Z" fill="white"/>
<path d="M576.566 109.631C577.663 117.765 581.099 129.057 591.228 133.582C597.869 136.733 610.943 136.506 618.223 132.117C625.3 127.56 627.399 123.819 632.138 116.102C632.138 116.102 633.202 115.446 633.59 115.599C634.366 115.904 634.262 116.849 634.262 116.849C633.697 129.432 627.222 144.973 612.663 153.75C601.313 160.745 584.002 161.723 571.732 156.266C556.934 149.725 548.681 134.745 546.412 121.852C544.193 109.516 546.532 87.4214 559.936 74.0706C571.447 62.5716 589.941 60.1793 601.56 62.5137C614.123 64.9512 623.068 70.8903 628.509 83.6884C629.936 87.1158 634.143 100.772 632.687 103.333C631.351 105.135 624.822 105.342 614.799 106.233L576.566 109.631ZM596.091 97.7941C599.06 97.5301 601.09 95.1049 601.617 92.6261C601.873 91.294 601.741 89.8092 601.56 87.7676C601.048 82.014 599.695 75.2128 593.088 72.433C589.195 70.7214 584.79 71.6741 581.816 73.9962C573.064 80.7603 574.726 93.146 576.046 99.5759C580.315 99.1965 596.091 97.7941 596.091 97.7941Z" fill="white"/>
<path d="M472.403 96.642C474.841 84.9687 474.182 80.8337 470.27 76.7804C469.328 75.8223 468.021 74.7879 466.532 73.7154C465.917 73.0158 465.522 72.1719 465.857 71.4805C466.45 70.4623 467.947 70.5847 467.947 70.5847L506.105 65.6116C510.02 65.0969 510.521 66.3436 509.873 69.4443L509.111 73.0922L508.082 78.0168C519.251 71.0227 526.732 68.0168 535.509 71.5634C539.696 73.3898 542.924 76.1582 544.229 81.7605C545.222 85.2041 544.254 91.6641 540.527 95.8349C537.28 99.5346 532.513 101.394 528.059 100.845C525.612 100.714 523.173 99.6335 520.483 97.9295C519.108 96.3098 518.417 95.975 516.822 94.4996C515.88 93.5415 513.928 91.0398 513.563 90.9636C511.671 89.9973 509.55 90.1254 507.862 90.915C504.593 92.897 503.739 98.8098 501.453 109.753L496.157 135.106C493.68 146.962 494.56 150.953 498.289 154.968C499.414 155.964 500.682 157.181 502.171 158.253C502.825 158.77 503.181 159.797 502.809 160.671C502.215 161.689 500.756 161.384 500.756 161.384L451.145 151.02C451.145 151.02 449.686 150.716 449.549 149.545C449.558 148.595 450.295 147.797 451.101 147.585C452.895 147.198 454.545 146.591 455.791 146.09C460.999 143.942 463.22 140.599 465.697 128.743L472.403 96.642Z" fill="white"/>
<path d="M445.68 26.3107L437.2 45.4827C433.426 53.4206 432.238 49.6188 431.234 45.7956C426.892 30.916 418.114 23.1128 401.113 22.0726C392.798 21.5311 379.826 24.5277 371.717 33.9035C356.687 51.5802 359.135 80.9333 363.932 96.5107C368.666 111.533 376.155 126.049 395.334 131.34C407.693 134.416 428.154 131.306 440.35 119.958C444.288 116.691 450.475 110.163 453.693 102.289C454.262 100.722 455.309 100.039 456.484 100.466C457.473 100.915 457.459 102.417 457.238 103.755C456.034 116.086 447.348 135.094 436.092 144.833C420.429 158.644 394.685 163.114 377.399 157.98C351.4 150.475 338.842 134.292 332.393 112.528C326.57 92.9422 327.312 58.7195 347.995 34.7639C356.432 24.9752 366.1 19.3585 376.352 15.5501C381.92 13.4074 389.772 11.5639 397.732 10.6458C412.54 8.9379 429.584 10.3483 443.324 18.8922C446.791 21.3058 447.311 22.5588 445.68 26.3107Z" fill="white"/>
<path d="M238.295 23.5922C238.823 24.6458 237.691 25.938 237.691 25.938C233.162 29.789 231.926 32.9786 233.986 38.1417C234.91 40.6443 241.56 51.5481 241.586 51.7325L254.621 73.0134L259.611 52.7188C263.131 39.224 264.731 30.7113 256.136 24.605C254.501 23.7104 253.551 22.3409 253.814 21.5502C254.077 20.7594 254.577 20.311 256.975 19.9665L281.321 16.4677C282.612 16.2822 283.245 16.756 283.351 17.4937C283.483 18.4159 282.667 19.2862 282.667 19.2862C280.481 21.1062 277.821 22.2416 275.379 32.7577L255.24 119.233C250.987 138.104 245.492 153.577 230.213 158.596C225.708 159.997 217.909 160.741 212.187 156.292C207.572 153.002 205.83 148.735 205.958 144.387C206.139 140.408 208.085 135.61 212.931 132.655C216.355 130.28 221.361 129.749 225.579 131.59C227.951 132.379 232.83 137.513 235.755 136.905C237.757 136.429 239.31 134.135 241.361 128.757C243.49 122.616 245.119 116.922 245.119 116.922L200.76 41.4107C198.49 37.4072 197.198 36.2752 196.117 35.3011C194.824 34.169 193.665 33.9592 192.399 33.0116C191.977 32.6958 190.738 31.9326 191.132 30.7465C191.342 29.5868 192.238 29.2699 192.976 29.1639L235.765 23.0146C237.609 22.7495 238.005 22.881 238.295 23.5922Z" fill="white"/>
<path d="M152.44 60.2748C162.059 60.21 183.075 65.8113 193.063 80.875C203.235 95.9664 201.697 116.273 196.63 128.702C190.07 143.545 177.872 154.528 160.431 157.753C145.707 160.444 125.557 155.349 114.648 143.916C101.123 129.829 100.569 110.904 103.665 97.8026C106.659 84.1205 116.139 69.9038 133.285 63.6198C139.467 61.3439 147.511 60.4776 152.44 60.2748ZM134.844 131.118C135.351 137.788 136.521 143.805 141.69 147.029C144.629 148.789 148.766 148.844 151.991 147.444C161.084 143.343 163.562 128.076 164.649 123.341C166.234 115.288 172.249 83.9713 163.515 74.3711C160.926 71.5334 157.323 70.4279 154.053 70.8794C136.142 73.4689 134.531 123.157 134.844 131.118Z" fill="white"/>
<path d="M63.887 38.5517C65.1416 26.5053 64.045 22.6443 59.7399 19.0112C58.7245 17.9687 57.1337 17.0537 55.7283 16.158C55.0256 15.7101 54.3615 14.8916 54.6433 13.9842C55.3151 12.9302 56.8171 12.8993 56.8171 12.8993L64.4155 13.6906L103.705 17.7827L111.304 18.574C111.304 18.574 112.952 18.9331 113.022 20.0644C113.111 21.0103 112.477 21.6937 111.698 21.9872C109.952 22.5548 108.393 23.1417 107.184 23.9525C102.223 26.6205 100.354 30.1727 99.0994 42.2191L91.977 110.605C89.6801 132.659 86.9158 146.609 66.6495 155.926C55.8195 160.98 25.6109 157.834 13.8888 149.869C5.64158 144.514 1.94647 136.823 2.61043 128.649C3.00416 123.07 5.01563 116.348 12.3553 112.429C17.502 109.78 24.9731 109.996 31.3168 113.842C37.4751 117.668 39.3865 126.297 38.8499 135.046C38.6801 140.274 38.6069 144.575 42.8231 147.263C43.8579 148.12 46.8038 148.614 48.5876 147.676C52.9737 145.135 53.2516 140.668 54.622 127.509L63.887 38.5517Z" fill="white"/>
<rect x="106.286" y="31.4981" width="58" height="28" rx="14" transform="rotate(-14.1997 106.286 31.4981)" fill="white"/>
<path d="M128.239 46.8375C127.391 47.052 126.61 47.0737 125.895 46.9024C125.191 46.7285 124.59 46.3745 124.092 45.8404C123.604 45.3036 123.255 44.6217 123.046 43.7944L121.229 36.6127L122.563 36.2752L124.38 43.4569C124.605 44.3462 125.022 44.9723 125.631 45.3354C126.25 45.6958 127.01 45.7622 127.909 45.5345C128.799 45.3095 129.425 44.8925 129.788 44.2835C130.161 43.6719 130.235 42.9215 130.01 42.0321L128.193 34.8505L129.527 34.513L131.344 41.6946C131.554 42.5219 131.566 43.2889 131.382 43.9957C131.208 44.6999 130.848 45.2972 130.301 45.7877C129.764 46.2756 129.077 46.6255 128.239 46.8375ZM139.259 44.0491C138.246 44.3055 137.305 44.2849 136.438 43.9873C135.578 43.6767 134.842 43.1368 134.229 42.3676C133.616 41.5984 133.17 40.6606 132.89 39.5541C132.61 38.4477 132.556 37.4104 132.73 36.4424C132.91 35.4613 133.31 34.6285 133.929 33.9437C134.548 33.259 135.364 32.7884 136.378 32.532C137.629 32.2154 138.705 32.2951 139.607 32.7711C140.509 33.2471 141.207 34.0057 141.701 35.0469L140.329 35.4932C139.991 34.7646 139.525 34.2498 138.931 33.9488C138.338 33.6479 137.597 33.6099 136.707 33.8349C135.518 34.1358 134.736 34.7848 134.361 35.7819C133.984 36.7686 133.959 37.9083 134.286 39.2009C134.506 40.0695 134.823 40.8033 135.239 41.4023C135.665 41.9987 136.19 42.4215 136.814 42.6707C137.449 42.9172 138.164 42.9398 138.96 42.7383C139.591 42.5787 140.108 42.2939 140.51 41.884C140.923 41.4715 141.196 40.9844 141.329 40.4226C141.472 39.8582 141.474 39.28 141.335 38.6879L138.171 39.4886L137.849 38.2167L142.254 37.102L143.663 42.6705L142.671 42.9217L141.934 40.4015L142.175 40.5715C142.177 41.0993 142.051 41.6041 141.799 42.086C141.555 42.555 141.208 42.9673 140.759 43.323C140.317 43.6658 139.817 43.9078 139.259 44.0491ZM150.272 41.2624C149.29 41.511 148.369 41.502 147.509 41.2354C146.647 40.9584 145.899 40.438 145.265 39.674C144.632 38.9101 144.167 37.9438 143.872 36.7753C143.576 35.6068 143.525 34.5359 143.719 33.5626C143.91 32.579 144.319 31.7603 144.946 31.1066C145.573 30.4529 146.377 30.0017 147.36 29.7531C148.652 29.4261 149.753 29.4941 150.663 29.9572C151.582 30.4176 152.313 31.2175 152.854 32.3569L151.466 32.8071C151.107 32.0398 150.608 31.5005 149.968 31.1893C149.338 30.8755 148.579 30.8311 147.689 31.0561C146.986 31.234 146.412 31.572 145.966 32.0699C145.517 32.5576 145.227 33.1754 145.098 33.9235C144.978 34.6689 145.035 35.5017 145.268 36.4221C145.501 37.3424 145.847 38.102 146.307 38.7009C146.774 39.2868 147.321 39.6876 147.948 39.9031C148.574 40.1186 149.239 40.1374 149.942 39.9595C150.883 39.7214 151.556 39.2926 151.96 38.6731C152.375 38.0511 152.542 37.277 152.462 36.3511L153.897 36.087C154.002 37.3699 153.742 38.4753 153.119 39.4033C152.503 40.3182 151.554 40.938 150.272 41.2624Z" fill="#4B4B4B"/>
<rect x="461.677" y="8.27055" width="67" height="28" rx="14" transform="rotate(26.2673 461.677 8.27055)" fill="white"/>
<path d="M468.916 21.4778L470.264 22.1434L469.059 32.5395L476.563 25.2519L477.912 25.9175L469.197 34.2847L467.576 33.4845L468.916 21.4778ZM476.546 38.1258C475.838 37.7765 475.302 37.3094 474.936 36.7245C474.57 36.1397 474.39 35.4799 474.396 34.7452C474.416 34.0057 474.624 33.2342 475.021 32.4308C475.413 31.6368 475.896 31.007 476.471 30.5413C477.055 30.0803 477.686 29.8147 478.363 29.7444C479.04 29.6741 479.723 29.8089 480.412 30.1488C481.072 30.4745 481.577 30.9203 481.928 31.4861C482.284 32.0424 482.452 32.6903 482.432 33.4298C482.422 34.174 482.211 34.9622 481.8 35.7944L481.623 36.1531L476.1 33.4269C475.741 34.2493 475.65 34.9653 475.824 35.575C476.014 36.1799 476.443 36.6475 477.113 36.978C477.6 37.2187 478.056 37.307 478.481 37.2428C478.919 37.1737 479.305 36.9713 479.637 36.6357L480.878 37.3734C480.333 37.9725 479.667 38.3457 478.881 38.4929C478.109 38.6352 477.33 38.5129 476.546 38.1258ZM480.827 34.4399C481.119 33.7038 481.171 33.069 480.982 32.5357C480.808 31.9976 480.429 31.5845 479.845 31.2966C479.252 31.0039 478.675 30.9449 478.113 31.1195C477.56 31.2989 477.064 31.7141 476.624 32.3652L480.827 34.4399ZM485.442 32.8453L486.503 33.3693L485.612 35.3202L485.518 35.2205C485.93 34.6269 486.37 34.2549 486.836 34.1046C487.303 33.9543 487.809 34.0136 488.354 34.2827L489.1 34.6509L488.534 35.7988L487.802 35.4376C487.419 35.2488 487.064 35.1624 486.735 35.1784C486.42 35.1896 486.127 35.3008 485.856 35.5121C485.595 35.7282 485.363 36.0418 485.16 36.4531L482.894 41.0444L481.689 40.4496L485.442 32.8453ZM489.46 44.4991C488.8 44.1733 488.278 43.7849 487.894 43.3337C487.524 42.8777 487.3 42.3923 487.221 41.8775C487.156 41.3578 487.23 40.8351 487.442 40.3093L488.747 40.8463C488.587 41.3623 488.604 41.8345 488.797 42.2628C488.995 42.6816 489.405 43.0444 490.027 43.3512C490.562 43.6156 491.021 43.7349 491.402 43.709C491.793 43.6879 492.079 43.4956 492.258 43.1321C492.362 42.9217 492.392 42.7283 492.348 42.5521C492.318 42.371 492.188 42.1641 491.958 41.9316C491.742 41.6942 491.385 41.3931 490.887 41.0284C490.231 40.55 489.743 40.1065 489.421 39.6979C489.099 39.2893 488.918 38.8967 488.878 38.5201C488.847 38.1482 488.934 37.7565 489.137 37.3452C489.477 36.6565 490.006 36.2221 490.726 36.0418C491.445 35.8616 492.254 35.9933 493.153 36.4371C494.033 36.8714 494.618 37.4455 494.908 38.1596C495.198 38.8736 495.231 39.6153 495.006 40.3844L493.701 39.8474C493.822 39.3841 493.787 38.9501 493.594 38.5457C493.41 38.1459 493.07 37.8233 492.573 37.5778C492.046 37.3182 491.598 37.2275 491.226 37.3058C490.859 37.3744 490.593 37.5762 490.428 37.911C490.305 38.1597 490.261 38.3936 490.295 38.6129C490.344 38.8273 490.472 39.0509 490.678 39.2835C490.889 39.5066 491.21 39.7721 491.641 40.0799C492.35 40.5962 492.867 41.0539 493.194 41.4529C493.534 41.847 493.722 42.2253 493.758 42.5877C493.807 42.9452 493.728 43.3344 493.521 43.7553C493.181 44.444 492.632 44.8451 491.874 44.9588C491.126 45.0772 490.321 44.9239 489.46 44.4991ZM497.199 48.3185C496.491 47.9691 495.955 47.502 495.589 46.9172C495.223 46.3323 495.044 45.6726 495.049 44.9379C495.069 44.1984 495.278 43.4269 495.674 42.6234C496.066 41.8295 496.549 41.1997 497.124 40.734C497.708 40.273 498.339 40.0074 499.016 39.9371C499.693 39.8668 500.376 40.0016 501.065 40.3414C501.725 40.6672 502.23 41.1129 502.581 41.6788C502.937 42.2351 503.105 42.883 503.085 43.6225C503.075 44.3667 502.864 45.1549 502.453 45.9871L502.276 46.3458L496.753 43.6196C496.394 44.442 496.303 45.158 496.477 45.7677C496.667 46.3725 497.096 46.8402 497.766 47.1706C498.253 47.4114 498.709 47.4997 499.134 47.4354C499.572 47.3664 499.958 47.164 500.29 46.8284L501.531 47.5661C500.986 48.1652 500.32 48.5384 499.534 48.6856C498.762 48.8279 497.983 48.7056 497.199 48.3185ZM501.48 44.6326C501.772 43.8964 501.824 43.2617 501.635 42.7284C501.461 42.1903 501.082 41.7772 500.498 41.4893C499.905 41.1966 499.328 41.1376 498.766 41.3122C498.213 41.4916 497.717 41.9068 497.277 42.5579L501.48 44.6326Z" fill="#4B4B4B"/>
<rect x="537.286" y="33.6456" width="123" height="28" rx="14" transform="rotate(-6.71149 537.286 33.6456)" fill="white"/>
<path d="M551.675 40.6519L555.171 40.2405C556.908 40.036 558.301 40.3716 559.349 41.2471C560.407 42.1107 561.042 43.4483 561.255 45.2598C561.467 47.0607 561.17 48.5027 560.363 49.5858C559.556 50.6688 558.299 51.3107 556.594 51.5114L553.003 51.934L551.675 40.6519ZM556.341 50.1879C557.666 50.032 558.62 49.56 559.203 48.7717C559.786 47.9728 559.993 46.8582 559.825 45.4281C559.655 43.9874 559.195 42.9461 558.442 42.3043C557.69 41.6625 556.652 41.4195 555.328 41.5753L553.199 41.8259L554.212 50.4384L556.341 50.1879ZM567.329 50.4415C566.545 50.5338 565.84 50.4341 565.215 50.1425C564.59 49.8508 564.08 49.3953 563.685 48.7759C563.299 48.1447 563.054 47.3841 562.949 46.4943C562.846 45.615 562.909 44.8236 563.137 44.12C563.376 43.4153 563.761 42.8491 564.291 42.4216C564.82 41.9941 565.466 41.7355 566.229 41.6457C566.96 41.5597 567.627 41.6585 568.23 41.942C568.831 42.2149 569.324 42.667 569.71 43.2982C570.107 43.9282 570.359 44.704 570.467 45.6257L570.514 46.0229L564.396 46.7429C564.543 47.6277 564.856 48.2783 565.335 48.6946C565.823 49.099 566.438 49.2575 567.179 49.1703C567.719 49.1067 568.15 48.9325 568.471 48.6477C568.801 48.3511 569.014 47.9716 569.11 47.5092L570.553 47.4521C570.422 48.2517 570.066 48.9272 569.487 49.4787C568.917 50.0183 568.197 50.3393 567.329 50.4415ZM568.914 45.0191C568.758 44.2426 568.456 43.6821 568.007 43.3375C567.568 42.9811 567.025 42.8409 566.379 42.917C565.722 42.9942 565.205 43.2591 564.829 43.7115C564.463 44.1627 564.273 44.7812 564.258 45.567L568.914 45.0191ZM570.669 41.3166L572.131 41.1446L575.408 47.9119L577.025 40.5686L578.487 40.3966L576.411 49.1794L574.727 49.3776L570.669 41.3166ZM584.057 48.473C583.273 48.5652 582.569 48.4655 581.944 48.1739C581.319 47.8823 580.809 47.4268 580.413 46.8074C580.028 46.1762 579.782 45.4156 579.678 44.5257C579.574 43.6465 579.637 42.8551 579.866 42.1515C580.105 41.4467 580.489 40.8806 581.019 40.4531C581.549 40.0256 582.195 39.767 582.958 39.6772C583.688 39.5912 584.355 39.6899 584.958 39.9735C585.559 40.2464 586.053 40.6985 586.439 41.3297C586.835 41.9597 587.087 42.7355 587.196 43.6572L587.242 44.0544L581.125 44.7743C581.272 45.6592 581.585 46.3098 582.063 46.726C582.551 47.1304 583.166 47.289 583.907 47.2018C584.448 47.1382 584.878 46.964 585.199 46.6792C585.529 46.3826 585.743 46.0031 585.839 45.5407L587.282 45.4836C587.15 46.2831 586.795 46.9586 586.215 47.5101C585.645 48.0498 584.926 48.3708 584.057 48.473ZM585.642 43.0506C585.486 42.2741 585.184 41.7136 584.735 41.369C584.296 41.0126 583.753 40.8724 583.107 40.9484C582.45 41.0257 581.934 41.2906 581.557 41.743C581.192 42.1942 581.001 42.8127 580.986 43.5985L585.642 43.0506ZM591.304 47.4268C590.785 47.4879 590.363 47.4088 590.036 47.1894C589.708 46.9595 589.513 46.5744 589.449 46.0341L588.324 36.3391L589.659 36.1821L590.787 45.7639C590.806 45.9334 590.864 46.0609 590.96 46.1462C591.066 46.2198 591.203 46.2466 591.373 46.2266L592.104 46.1406L592.242 47.3165L591.304 47.4268ZM597.356 46.908C596.583 46.999 595.883 46.8987 595.258 46.6071C594.633 46.3155 594.123 45.86 593.728 45.2406C593.332 44.6106 593.081 43.8506 592.977 42.9608C592.872 42.0709 592.94 41.2789 593.18 40.5847C593.42 39.8799 593.809 39.3131 594.35 38.8844C594.89 38.4556 595.547 38.1958 596.32 38.1048C597.083 38.015 597.777 38.1159 598.402 38.4076C599.027 38.6992 599.537 39.16 599.934 39.79C600.329 40.4094 600.579 41.164 600.683 42.0539C600.788 42.9437 600.721 43.7411 600.482 44.4458C600.241 45.14 599.851 45.7015 599.31 46.1303C598.77 46.559 598.119 46.8183 597.356 46.908ZM597.206 45.6368C597.98 45.5458 598.546 45.1999 598.905 44.5992C599.273 43.9866 599.4 43.193 599.285 42.2184C599.17 41.2438 598.863 40.5066 598.364 40.0069C597.874 39.4953 597.243 39.285 596.47 39.376C595.696 39.467 595.125 39.8135 594.755 40.4155C594.386 41.0174 594.259 41.811 594.375 42.7962C594.491 43.7814 594.798 44.5239 595.298 45.0237C595.797 45.5234 596.433 45.7278 597.206 45.6368ZM602.13 37.6144L603.369 37.4685L603.614 39.2763L603.412 39.2034C603.541 38.5653 603.83 38.0533 604.279 37.6676C604.738 37.2806 605.296 37.0485 605.953 36.9712C606.758 36.8764 607.454 36.9986 608.042 37.3375C608.639 37.6647 609.109 38.1464 609.453 38.7826C609.796 39.4188 610.015 40.1395 610.11 40.9446C610.205 41.7497 610.159 42.5015 609.973 43.2001C609.786 43.8987 609.441 44.4816 608.938 44.949C608.444 45.4046 607.794 45.6797 606.989 45.7744C606.555 45.8255 606.138 45.7994 605.739 45.696C605.351 45.5913 605.009 45.4221 604.713 45.1884C604.426 44.9429 604.215 44.651 604.078 44.3126L604.243 44.0677L604.736 48.2628L603.402 48.4198L602.13 37.6144ZM606.712 44.5182C607.443 44.4322 607.988 44.0888 608.347 43.488C608.706 42.8873 608.827 42.0944 608.711 41.1092C608.596 40.1239 608.293 39.3808 607.805 38.8798C607.316 38.3788 606.706 38.1714 605.975 38.2574C605.488 38.3147 605.079 38.4864 604.747 38.7724C604.414 39.0479 604.18 39.4299 604.044 39.9184C603.909 40.407 603.88 40.9903 603.96 41.6683C604.04 42.3462 604.203 42.9071 604.448 43.3508C604.694 43.7944 605.006 44.1175 605.384 44.32C605.772 44.5107 606.214 44.5768 606.712 44.5182ZM611.549 36.5059L612.773 36.362L613.071 38.4857L612.873 38.4445C612.915 37.9778 613.032 37.5612 613.225 37.1948C613.429 36.8271 613.695 36.5327 614.024 36.3115C614.351 36.0796 614.726 35.9388 615.15 35.8889C615.881 35.8029 616.498 35.9344 617.001 36.2833C617.513 36.6204 617.87 37.1476 618.073 37.8649L617.817 37.8789C617.859 37.1436 618.08 36.5537 618.478 36.1094C618.876 35.6545 619.43 35.3853 620.139 35.3018C620.733 35.232 621.251 35.2999 621.694 35.5055C622.146 35.6993 622.507 36.0221 622.775 36.4738C623.042 36.9256 623.216 37.4905 623.296 38.1685L623.934 43.5871L622.599 43.7442L621.995 38.6116C621.905 37.8489 621.69 37.2943 621.348 36.9478C621.005 36.5907 620.543 36.4465 619.96 36.5151C619.568 36.5612 619.235 36.697 618.961 36.9226C618.697 37.147 618.507 37.4486 618.391 37.8275C618.274 38.2063 618.245 38.6447 618.304 39.1426L618.897 44.1799L617.562 44.3369L616.969 39.2997C616.878 38.5264 616.67 37.9493 616.346 37.5686C616.022 37.1879 615.558 37.033 614.955 37.1041C614.563 37.1502 614.23 37.2861 613.955 37.5116C613.681 37.7372 613.486 38.0448 613.371 38.4342C613.255 38.8131 613.225 39.2462 613.282 39.7335L613.875 44.7708L612.54 44.9278L611.549 36.5059ZM629.602 43.1134C628.818 43.2056 628.114 43.106 627.489 42.8143C626.864 42.5227 626.354 42.0672 625.959 41.4478C625.573 40.8166 625.328 40.056 625.223 39.1662C625.119 38.2869 625.182 37.4955 625.411 36.7919C625.65 36.0871 626.034 35.521 626.564 35.0935C627.094 34.666 627.74 34.4074 628.503 34.3176C629.234 34.2316 629.9 34.3304 630.503 34.6139C631.104 34.8868 631.598 35.3389 631.984 35.9701C632.38 36.6001 632.632 37.3759 632.741 38.2976L632.788 38.6948L626.67 39.4148C626.817 40.2996 627.13 40.9502 627.608 41.3664C628.096 41.7709 628.711 41.9294 629.453 41.8422C629.993 41.7786 630.423 41.6044 630.744 41.3196C631.075 41.023 631.288 40.6435 631.384 40.1811L632.827 40.124C632.695 40.9235 632.34 41.5991 631.76 42.1506C631.19 42.6902 630.471 43.0112 629.602 43.1134ZM631.187 37.691C631.031 36.9145 630.729 36.354 630.281 36.0094C629.841 35.653 629.298 35.5128 628.652 35.5888C627.995 35.6661 627.479 35.931 627.102 36.3834C626.737 36.8346 626.546 37.4531 626.531 38.2389L631.187 37.691ZM634.19 33.8417L635.414 33.6977L635.714 35.8373L635.538 35.713C635.601 34.9752 635.855 34.3922 636.299 33.9641C636.753 33.5347 637.324 33.2795 638.013 33.1985C638.935 33.09 639.674 33.3037 640.231 33.8396C640.788 34.3755 641.122 35.1149 641.233 36.0577L641.871 41.4763L640.536 41.6334L639.943 36.5962C639.85 35.8016 639.636 35.2199 639.303 34.851C638.97 34.4821 638.49 34.3345 637.865 34.408C637.198 34.4866 636.683 34.762 636.319 35.2344C635.965 35.6949 635.833 36.3065 635.923 37.0693L636.516 42.1065L635.181 42.2636L634.19 33.8417ZM647.016 40.8709C646.253 40.9606 645.666 40.8525 645.254 40.5466C644.853 40.2394 644.608 39.715 644.521 38.9735L643.552 30.7423L644.887 30.5852L645.852 38.7846C645.896 39.1554 646.006 39.4109 646.184 39.5511C646.371 39.6794 646.644 39.7224 647.005 39.68L648.212 39.5379L648.351 40.7138L647.016 40.8709ZM642.545 32.8585L647.36 32.2919L647.498 33.4678L642.683 34.0344L642.545 32.8585Z" fill="#4B4B4B"/>
<rect x="686.184" y="23.2705" width="57" height="28" rx="14" transform="rotate(12.1613 686.184 23.2705)" fill="white"/>
<path d="M696.423 34.3154L697.893 34.6322L698.182 44.3838L702.445 35.6131L703.978 35.9434L704.266 45.695L708.529 36.9243L710.015 37.2445L704.697 47.7192L703.008 47.3552L702.672 38.2808L698.628 46.4114L696.955 46.0508L696.423 34.3154ZM711.669 49.4181C710.897 49.2518 710.263 48.9296 709.766 48.4515C709.269 47.9733 708.933 47.3773 708.76 46.6634C708.599 45.9413 708.613 45.1424 708.802 44.2665C708.988 43.401 709.304 42.6724 709.748 42.0806C710.202 41.4911 710.749 41.0798 711.388 40.8466C712.028 40.6134 712.723 40.5777 713.474 40.7395C714.193 40.8946 714.792 41.2037 715.271 41.6669C715.751 42.1196 716.072 42.7071 716.233 43.4292C716.404 44.1535 716.392 44.9692 716.197 45.8764L716.112 46.2674L710.091 44.9697C709.944 45.8546 710.029 46.5714 710.347 47.1201C710.678 47.6606 711.209 48.0095 711.939 48.1668C712.47 48.2814 712.934 48.2559 713.33 48.0902C713.738 47.9163 714.063 47.6262 714.303 47.2197L715.687 47.6325C715.304 48.3465 714.749 48.8707 714.023 49.2051C713.308 49.5313 712.524 49.6023 711.669 49.4181ZM714.923 44.7999C715.027 44.0148 714.922 43.3867 714.609 42.9155C714.308 42.4361 713.84 42.1279 713.204 41.9908C712.558 41.8515 711.983 41.935 711.481 42.2413C710.988 42.5499 710.608 43.0736 710.34 43.8123L714.923 44.7999ZM720.754 51.3759C720.18 51.2523 719.696 51.0171 719.302 50.6702C718.908 50.3233 718.64 49.8946 718.499 49.3842L718.182 50.6253L716.994 50.3691L719.387 39.2641L720.701 39.5472L719.844 43.52C720.144 43.1918 720.547 42.9457 721.051 42.7816C721.556 42.6176 722.079 42.594 722.621 42.7108C723.341 42.8659 723.928 43.178 724.384 43.6471C724.849 44.1185 725.158 44.7141 725.308 45.4339C725.461 46.1433 725.443 46.936 725.254 47.8119C725.065 48.6878 724.754 49.4227 724.32 50.0167C723.889 50.6003 723.364 51.0109 722.745 51.2486C722.137 51.4885 721.473 51.5309 720.754 51.3759ZM720.945 50.1078C721.644 50.2583 722.256 50.1011 722.782 49.6361C723.308 49.1711 723.673 48.4641 723.877 47.5152C724.084 46.5559 724.043 45.7614 723.753 45.1315C723.476 44.4935 722.993 44.1003 722.305 43.952C721.794 43.8419 721.329 43.8726 720.91 44.0442C720.493 44.2054 720.135 44.4993 719.836 44.9258C719.55 45.3442 719.338 45.8714 719.201 46.5074C719.066 47.1331 719.042 47.7007 719.128 48.2104C719.228 48.7119 719.427 49.126 719.728 49.4526C720.039 49.7815 720.445 49.9999 720.945 50.1078Z" fill="#4B4B4B"/>
<rect x="771.723" y="35.0485" width="66" height="28" rx="14" transform="rotate(-32.0756 771.723 35.0485)" fill="white"/>
<path d="M797.325 42.9086C796.584 43.3731 795.847 43.6335 795.115 43.6898C794.391 43.7404 793.71 43.588 793.072 43.2327C792.443 42.8716 791.902 42.3296 791.449 41.6065L787.515 35.3293L788.681 34.5986L792.615 40.8758C793.102 41.6531 793.691 42.121 794.382 42.2796C795.082 42.4325 795.825 42.2626 796.612 41.7698C797.389 41.2826 797.857 40.6935 798.015 40.0025C798.183 39.3058 798.023 38.5688 797.536 37.7915L793.602 31.5144L794.768 30.7836L798.702 37.0608C799.155 37.7839 799.403 38.51 799.444 39.2392C799.495 39.9628 799.335 40.642 798.965 41.2767C798.604 41.9058 798.057 42.4498 797.325 42.9086ZM797.074 29.3574L803.121 25.5679L803.834 26.7068L798.954 29.7656L800.899 32.8702L805.618 29.9134L806.314 31.0251L801.596 33.982L803.559 37.1138L808.548 33.987L809.262 35.1258L803.107 38.9833L797.074 29.3574ZM805.243 24.2379L811.29 20.4484L812.003 21.5872L806.54 25.0114L806.749 24.0495L809.519 28.4693L808.562 28.2381L813.782 24.9669L814.478 26.0786L809.259 29.3498L809.468 28.3879L812.442 33.1331L811.276 33.8638L805.243 24.2379ZM813.24 19.2262L814.894 18.1896L824.955 23.6673L819.653 15.2073L820.819 14.4766L826.851 24.1025L825.116 25.1901L815.239 19.8242L820.438 28.1214L819.272 28.8521L813.24 19.2262Z" fill="#4B4B4B"/>
<rect x="931.286" y="21.2705" width="76" height="28" rx="14" fill="white"/>
<path d="M947.446 41.5265C946.347 41.5265 945.483 41.2652 944.854 40.7425C944.235 40.2092 943.926 39.4572 943.926 38.4865C943.926 37.7612 944.086 37.1425 944.406 36.6305C944.736 36.1185 945.323 35.5639 946.166 34.9665C945.76 34.4439 945.467 33.9852 945.286 33.5905C945.104 33.1852 945.014 32.7479 945.014 32.2785C945.014 31.4679 945.259 30.8279 945.75 30.3585C946.251 29.8892 946.934 29.6545 947.798 29.6545C948.352 29.6545 948.827 29.7559 949.222 29.9585C949.627 30.1505 949.931 30.4279 950.134 30.7905C950.347 31.1532 950.454 31.5852 950.454 32.0865C950.454 32.6945 950.272 33.2385 949.91 33.7185C949.558 34.1985 948.95 34.7265 948.086 35.3025L950.678 38.6145C951.062 38.0812 951.254 37.2705 951.254 36.1825L952.598 36.3105C952.587 36.9399 952.486 37.5532 952.294 38.1505C952.102 38.7479 951.846 39.2385 951.526 39.6225L952.886 41.2705H951.27L950.678 40.5505C950.358 40.8599 949.926 41.0999 949.382 41.2705C948.838 41.4412 948.192 41.5265 947.446 41.5265ZM947.606 40.2465C948.128 40.2465 948.571 40.1879 948.934 40.0705C949.307 39.9425 949.59 39.7772 949.782 39.5745L946.966 36.0225C946.39 36.4279 945.979 36.8172 945.734 37.1905C945.488 37.5639 945.366 37.9959 945.366 38.4865C945.366 39.0412 945.547 39.4732 945.91 39.7825C946.283 40.0919 946.848 40.2465 947.606 40.2465ZM947.35 34.3265C947.755 34.0705 948.08 33.8359 948.326 33.6225C948.571 33.3985 948.747 33.1745 948.854 32.9505C948.96 32.7159 949.014 32.4599 949.014 32.1825C949.014 31.7985 948.907 31.5052 948.694 31.3025C948.48 31.0999 948.182 30.9985 947.798 30.9985C947.371 30.9985 947.04 31.1105 946.806 31.3345C946.571 31.5585 946.454 31.8732 946.454 32.2785C946.454 32.6092 946.518 32.9292 946.646 33.2385C946.784 33.5372 947.019 33.8999 947.35 34.3265ZM958.487 32.7905H959.719L959.767 34.9345L959.575 34.8705C959.671 34.4119 959.837 34.0119 960.071 33.6705C960.317 33.3292 960.615 33.0679 960.967 32.8865C961.319 32.6945 961.709 32.5985 962.135 32.5985C962.871 32.5985 963.469 32.8012 963.927 33.2065C964.397 33.6012 964.69 34.1665 964.807 34.9025L964.551 34.8865C964.679 34.1612 964.967 33.6012 965.415 33.2065C965.863 32.8012 966.445 32.5985 967.159 32.5985C967.757 32.5985 968.263 32.7265 968.679 32.9825C969.106 33.2279 969.426 33.5905 969.639 34.0705C969.853 34.5505 969.959 35.1319 969.959 35.8145V41.2705H968.615V36.1025C968.615 35.3345 968.466 34.7585 968.167 34.3745C967.869 33.9799 967.426 33.7825 966.839 33.7825C966.445 33.7825 966.098 33.8785 965.799 34.0705C965.511 34.2625 965.287 34.5399 965.127 34.9025C964.967 35.2652 964.887 35.6972 964.887 36.1985V41.2705H963.543V36.1985C963.543 35.4199 963.405 34.8225 963.127 34.4065C962.85 33.9905 962.407 33.7825 961.799 33.7825C961.405 33.7825 961.058 33.8785 960.759 34.0705C960.461 34.2625 960.231 34.5452 960.071 34.9185C959.911 35.2812 959.831 35.7079 959.831 36.1985V41.2705H958.487V32.7905ZM975.644 41.4625C974.866 41.4625 974.183 41.2812 973.596 40.9185C973.01 40.5559 972.556 40.0439 972.236 39.3825C971.916 38.7105 971.756 37.9265 971.756 37.0305C971.756 36.1345 971.916 35.3559 972.236 34.6945C972.556 34.0225 973.01 33.5052 973.596 33.1425C974.183 32.7799 974.866 32.5985 975.644 32.5985C976.412 32.5985 977.09 32.7799 977.676 33.1425C978.263 33.5052 978.716 34.0225 979.036 34.6945C979.356 35.3559 979.516 36.1345 979.516 37.0305C979.516 37.9265 979.356 38.7105 979.036 39.3825C978.716 40.0439 978.263 40.5559 977.676 40.9185C977.09 41.2812 976.412 41.4625 975.644 41.4625ZM975.644 40.1825C976.423 40.1825 977.026 39.9052 977.452 39.3505C977.89 38.7852 978.108 38.0119 978.108 37.0305C978.108 36.0492 977.89 35.2812 977.452 34.7265C977.026 34.1612 976.423 33.8785 975.644 33.8785C974.866 33.8785 974.258 34.1559 973.82 34.7105C973.383 35.2652 973.164 36.0385 973.164 37.0305C973.164 38.0225 973.383 38.7959 973.82 39.3505C974.258 39.9052 974.866 40.1825 975.644 40.1825ZM981.472 32.7905H982.656L982.72 34.9345L982.592 34.8865C982.698 34.1719 982.928 33.6439 983.28 33.3025C983.632 32.9612 984.112 32.7905 984.72 32.7905H985.552V34.0705H984.736C984.309 34.0705 983.952 34.1505 983.664 34.3105C983.386 34.4599 983.173 34.6892 983.024 34.9985C982.885 35.3079 982.816 35.6919 982.816 36.1505V41.2705H981.472V32.7905ZM990.457 41.4625C989.667 41.4625 988.979 41.2812 988.393 40.9185C987.806 40.5559 987.353 40.0439 987.033 39.3825C986.723 38.7105 986.569 37.9265 986.569 37.0305C986.569 36.1452 986.723 35.3665 987.033 34.6945C987.353 34.0225 987.801 33.5052 988.377 33.1425C988.953 32.7799 989.625 32.5985 990.393 32.5985C991.129 32.5985 991.779 32.7745 992.345 33.1265C992.91 33.4679 993.347 33.9745 993.657 34.6465C993.977 35.3185 994.137 36.1185 994.137 37.0465V37.4465H987.977C988.019 38.3425 988.254 39.0252 988.681 39.4945C989.118 39.9532 989.71 40.1825 990.457 40.1825C991.001 40.1825 991.449 40.0599 991.801 39.8145C992.163 39.5585 992.419 39.2065 992.569 38.7585L994.009 38.8705C993.785 39.6492 993.353 40.2785 992.713 40.7585C992.083 41.2279 991.331 41.4625 990.457 41.4625ZM992.665 36.2625C992.601 35.4732 992.366 34.8812 991.961 34.4865C991.566 34.0812 991.043 33.8785 990.393 33.8785C989.731 33.8785 989.187 34.0812 988.761 34.4865C988.345 34.8919 988.083 35.4839 987.977 36.2625H992.665Z" fill="#4B4B4B"/>
</svg>
