<svg width="1920" height="1004" viewBox="0 0 1920 1004" fill="none" xmlns="http://www.w3.org/2000/svg">
<g clip-path="url(#clip0_148_324)">
<rect x="-543.5" y="0.5" width="999" height="499" rx="3.5" fill="#090003"/>
<rect x="-543.5" y="0.5" width="999" height="499" rx="3.5" fill="url(#paint0_linear_148_324)"/>
<rect x="-543.5" y="0.5" width="999" height="499" rx="3.5" fill="url(#paint1_linear_148_324)"/>
<rect x="-543.5" y="0.5" width="999" height="499" rx="3.5" stroke="url(#paint2_linear_148_324)"/>
<rect x="-543.5" y="0.5" width="999" height="499" rx="3.5" stroke="url(#paint3_linear_148_324)" stroke-opacity="0.2" style="mix-blend-mode:plus-lighter"/>
<rect x="-543.5" y="0.5" width="999" height="499" rx="3.5" stroke="url(#paint4_linear_148_324)" stroke-opacity="0.2"/>
<rect x="460.5" y="0.5" width="999" height="499" rx="3.5" fill="#090003"/>
<rect x="460.5" y="0.5" width="999" height="499" rx="3.5" fill="url(#paint5_linear_148_324)"/>
<rect x="460.5" y="0.5" width="999" height="499" rx="3.5" fill="url(#paint6_linear_148_324)"/>
<rect x="460.5" y="0.5" width="999" height="499" rx="3.5" stroke="url(#paint7_linear_148_324)"/>
<rect x="460.5" y="0.5" width="999" height="499" rx="3.5" stroke="url(#paint8_linear_148_324)" stroke-opacity="0.2" style="mix-blend-mode:plus-lighter"/>
<rect x="460.5" y="0.5" width="999" height="499" rx="3.5" stroke="url(#paint9_linear_148_324)" stroke-opacity="0.2"/>
<rect x="1464.5" y="0.5" width="999" height="499" rx="3.5" fill="#090003"/>
<rect x="1464.5" y="0.5" width="999" height="499" rx="3.5" fill="url(#paint10_linear_148_324)"/>
<rect x="1464.5" y="0.5" width="999" height="499" rx="3.5" fill="url(#paint11_linear_148_324)"/>
<rect x="1464.5" y="0.5" width="999" height="499" rx="3.5" stroke="url(#paint12_linear_148_324)"/>
<rect x="1464.5" y="0.5" width="999" height="499" rx="3.5" stroke="url(#paint13_linear_148_324)" stroke-opacity="0.2" style="mix-blend-mode:plus-lighter"/>
<rect x="1464.5" y="0.5" width="999" height="499" rx="3.5" stroke="url(#paint14_linear_148_324)" stroke-opacity="0.2"/>
<rect x="-543.5" y="0.5" width="999" height="499" rx="3.5" fill="#090003"/>
<rect x="-543.5" y="0.5" width="999" height="499" rx="3.5" fill="url(#paint15_linear_148_324)"/>
<rect x="-543.5" y="0.5" width="999" height="499" rx="3.5" fill="url(#paint16_linear_148_324)"/>
<rect x="-543.5" y="0.5" width="999" height="499" rx="3.5" stroke="url(#paint17_linear_148_324)"/>
<rect x="-543.5" y="0.5" width="999" height="499" rx="3.5" stroke="url(#paint18_linear_148_324)" stroke-opacity="0.2" style="mix-blend-mode:plus-lighter"/>
<rect x="-543.5" y="0.5" width="999" height="499" rx="3.5" stroke="url(#paint19_linear_148_324)" stroke-opacity="0.2"/>
<rect x="460.5" y="0.5" width="999" height="499" rx="3.5" fill="#090003"/>
<rect x="460.5" y="0.5" width="999" height="499" rx="3.5" fill="url(#paint20_linear_148_324)"/>
<rect x="460.5" y="0.5" width="999" height="499" rx="3.5" fill="url(#paint21_linear_148_324)"/>
<rect x="460.5" y="0.5" width="999" height="499" rx="3.5" stroke="url(#paint22_linear_148_324)"/>
<rect x="460.5" y="0.5" width="999" height="499" rx="3.5" stroke="url(#paint23_linear_148_324)" stroke-opacity="0.2" style="mix-blend-mode:plus-lighter"/>
<rect x="460.5" y="0.5" width="999" height="499" rx="3.5" stroke="url(#paint24_linear_148_324)" stroke-opacity="0.2"/>
<rect x="1464.5" y="0.5" width="999" height="499" rx="3.5" fill="#090003"/>
<rect x="1464.5" y="0.5" width="999" height="499" rx="3.5" fill="url(#paint25_linear_148_324)"/>
<rect x="1464.5" y="0.5" width="999" height="499" rx="3.5" fill="url(#paint26_linear_148_324)"/>
<rect x="1464.5" y="0.5" width="999" height="499" rx="3.5" stroke="url(#paint27_linear_148_324)"/>
<rect x="1464.5" y="0.5" width="999" height="499" rx="3.5" stroke="url(#paint28_linear_148_324)" stroke-opacity="0.2" style="mix-blend-mode:plus-lighter"/>
<rect x="1464.5" y="0.5" width="999" height="499" rx="3.5" stroke="url(#paint29_linear_148_324)" stroke-opacity="0.2"/>
<rect x="2463.5" y="1003.5" width="999" height="499" rx="3.5" transform="rotate(180 2463.5 1003.5)" fill="#090003"/>
<rect x="2463.5" y="1003.5" width="999" height="499" rx="3.5" transform="rotate(180 2463.5 1003.5)" fill="url(#paint30_linear_148_324)"/>
<rect x="2463.5" y="1003.5" width="999" height="499" rx="3.5" transform="rotate(180 2463.5 1003.5)" fill="url(#paint31_linear_148_324)"/>
<rect x="2463.5" y="1003.5" width="999" height="499" rx="3.5" transform="rotate(180 2463.5 1003.5)" stroke="url(#paint32_linear_148_324)"/>
<rect x="2463.5" y="1003.5" width="999" height="499" rx="3.5" transform="rotate(180 2463.5 1003.5)" stroke="url(#paint33_linear_148_324)" stroke-opacity="0.2" style="mix-blend-mode:plus-lighter"/>
<rect x="2463.5" y="1003.5" width="999" height="499" rx="3.5" transform="rotate(180 2463.5 1003.5)" stroke="url(#paint34_linear_148_324)" stroke-opacity="0.2"/>
<rect x="1459.5" y="1003.5" width="999" height="499" rx="3.5" transform="rotate(180 1459.5 1003.5)" fill="#090003"/>
<rect x="1459.5" y="1003.5" width="999" height="499" rx="3.5" transform="rotate(180 1459.5 1003.5)" fill="url(#paint35_linear_148_324)"/>
<rect x="1459.5" y="1003.5" width="999" height="499" rx="3.5" transform="rotate(180 1459.5 1003.5)" fill="url(#paint36_linear_148_324)"/>
<rect x="1459.5" y="1003.5" width="999" height="499" rx="3.5" transform="rotate(180 1459.5 1003.5)" stroke="url(#paint37_linear_148_324)"/>
<rect x="1459.5" y="1003.5" width="999" height="499" rx="3.5" transform="rotate(180 1459.5 1003.5)" stroke="url(#paint38_linear_148_324)" stroke-opacity="0.2" style="mix-blend-mode:plus-lighter"/>
<rect x="1459.5" y="1003.5" width="999" height="499" rx="3.5" transform="rotate(180 1459.5 1003.5)" stroke="url(#paint39_linear_148_324)" stroke-opacity="0.2"/>
<rect x="455.5" y="1003.5" width="999" height="499" rx="3.5" transform="rotate(180 455.5 1003.5)" fill="#090003"/>
<rect x="455.5" y="1003.5" width="999" height="499" rx="3.5" transform="rotate(180 455.5 1003.5)" fill="url(#paint40_linear_148_324)"/>
<rect x="455.5" y="1003.5" width="999" height="499" rx="3.5" transform="rotate(180 455.5 1003.5)" fill="url(#paint41_linear_148_324)"/>
<rect x="455.5" y="1003.5" width="999" height="499" rx="3.5" transform="rotate(180 455.5 1003.5)" stroke="url(#paint42_linear_148_324)"/>
<rect x="455.5" y="1003.5" width="999" height="499" rx="3.5" transform="rotate(180 455.5 1003.5)" stroke="url(#paint43_linear_148_324)" stroke-opacity="0.2" style="mix-blend-mode:plus-lighter"/>
<rect x="455.5" y="1003.5" width="999" height="499" rx="3.5" transform="rotate(180 455.5 1003.5)" stroke="url(#paint44_linear_148_324)" stroke-opacity="0.2"/>
</g>
<defs>
<linearGradient id="paint0_linear_148_324" x1="-544" y1="500" x2="-358.384" y2="194.58" gradientUnits="userSpaceOnUse">
<stop stop-color="#480018"/>
<stop offset="1" stop-color="#140008" stop-opacity="0"/>
</linearGradient>
<linearGradient id="paint1_linear_148_324" x1="456" y1="500" x2="185" y2="287" gradientUnits="userSpaceOnUse">
<stop stop-color="#480018"/>
<stop offset="1" stop-color="#140008" stop-opacity="0"/>
</linearGradient>
<linearGradient id="paint2_linear_148_324" x1="-544" y1="500" x2="-472.541" y2="368.779" gradientUnits="userSpaceOnUse">
<stop stop-color="#FF6593"/>
<stop offset="1" stop-color="#171921"/>
</linearGradient>
<linearGradient id="paint3_linear_148_324" x1="-528.021" y1="500" x2="-435.435" y2="358.132" gradientUnits="userSpaceOnUse">
<stop stop-color="#F20091"/>
<stop offset="1" stop-color="#191C23" stop-opacity="0.2"/>
</linearGradient>
<linearGradient id="paint4_linear_148_324" x1="-544" y1="500" x2="-489.999" y2="397.515" gradientUnits="userSpaceOnUse">
<stop stop-color="#FF2976"/>
<stop offset="1" stop-color="#1B1B1F" stop-opacity="0"/>
</linearGradient>
<linearGradient id="paint5_linear_148_324" x1="460" y1="500" x2="645.616" y2="194.58" gradientUnits="userSpaceOnUse">
<stop stop-color="#480018"/>
<stop offset="1" stop-color="#140008" stop-opacity="0"/>
</linearGradient>
<linearGradient id="paint6_linear_148_324" x1="1460" y1="500" x2="1189" y2="287" gradientUnits="userSpaceOnUse">
<stop stop-color="#480018"/>
<stop offset="1" stop-color="#140008" stop-opacity="0"/>
</linearGradient>
<linearGradient id="paint7_linear_148_324" x1="460" y1="500" x2="531.459" y2="368.779" gradientUnits="userSpaceOnUse">
<stop stop-color="#FF6593"/>
<stop offset="1" stop-color="#171921"/>
</linearGradient>
<linearGradient id="paint8_linear_148_324" x1="475.979" y1="500" x2="568.565" y2="358.132" gradientUnits="userSpaceOnUse">
<stop stop-color="#F20091"/>
<stop offset="1" stop-color="#191C23" stop-opacity="0.2"/>
</linearGradient>
<linearGradient id="paint9_linear_148_324" x1="460" y1="500" x2="514.001" y2="397.515" gradientUnits="userSpaceOnUse">
<stop stop-color="#FF2976"/>
<stop offset="1" stop-color="#1B1B1F" stop-opacity="0"/>
</linearGradient>
<linearGradient id="paint10_linear_148_324" x1="1464" y1="500" x2="1649.62" y2="194.58" gradientUnits="userSpaceOnUse">
<stop stop-color="#480018"/>
<stop offset="1" stop-color="#140008" stop-opacity="0"/>
</linearGradient>
<linearGradient id="paint11_linear_148_324" x1="2464" y1="500" x2="2193" y2="287" gradientUnits="userSpaceOnUse">
<stop stop-color="#480018"/>
<stop offset="1" stop-color="#140008" stop-opacity="0"/>
</linearGradient>
<linearGradient id="paint12_linear_148_324" x1="1464" y1="500" x2="1535.46" y2="368.779" gradientUnits="userSpaceOnUse">
<stop stop-color="#FF6593"/>
<stop offset="1" stop-color="#171921"/>
</linearGradient>
<linearGradient id="paint13_linear_148_324" x1="1479.98" y1="500" x2="1572.56" y2="358.132" gradientUnits="userSpaceOnUse">
<stop stop-color="#F20091"/>
<stop offset="1" stop-color="#191C23" stop-opacity="0.2"/>
</linearGradient>
<linearGradient id="paint14_linear_148_324" x1="1464" y1="500" x2="1518" y2="397.515" gradientUnits="userSpaceOnUse">
<stop stop-color="#FF2976"/>
<stop offset="1" stop-color="#1B1B1F" stop-opacity="0"/>
</linearGradient>
<linearGradient id="paint15_linear_148_324" x1="-544" y1="500" x2="-358.384" y2="194.58" gradientUnits="userSpaceOnUse">
<stop stop-color="#480018"/>
<stop offset="1" stop-color="#140008" stop-opacity="0"/>
</linearGradient>
<linearGradient id="paint16_linear_148_324" x1="456" y1="500" x2="185" y2="287" gradientUnits="userSpaceOnUse">
<stop stop-color="#480018"/>
<stop offset="1" stop-color="#140008" stop-opacity="0"/>
</linearGradient>
<linearGradient id="paint17_linear_148_324" x1="-544" y1="500" x2="-472.541" y2="368.779" gradientUnits="userSpaceOnUse">
<stop stop-color="#FF6593"/>
<stop offset="1" stop-color="#171921"/>
</linearGradient>
<linearGradient id="paint18_linear_148_324" x1="-528.021" y1="500" x2="-435.435" y2="358.132" gradientUnits="userSpaceOnUse">
<stop stop-color="#F20091"/>
<stop offset="1" stop-color="#191C23" stop-opacity="0.2"/>
</linearGradient>
<linearGradient id="paint19_linear_148_324" x1="-544" y1="500" x2="-489.999" y2="397.515" gradientUnits="userSpaceOnUse">
<stop stop-color="#FF2976"/>
<stop offset="1" stop-color="#1B1B1F" stop-opacity="0"/>
</linearGradient>
<linearGradient id="paint20_linear_148_324" x1="460" y1="500" x2="645.616" y2="194.58" gradientUnits="userSpaceOnUse">
<stop stop-color="#480018"/>
<stop offset="1" stop-color="#140008" stop-opacity="0"/>
</linearGradient>
<linearGradient id="paint21_linear_148_324" x1="1460" y1="500" x2="1189" y2="287" gradientUnits="userSpaceOnUse">
<stop stop-color="#480018"/>
<stop offset="1" stop-color="#140008" stop-opacity="0"/>
</linearGradient>
<linearGradient id="paint22_linear_148_324" x1="460" y1="500" x2="531.459" y2="368.779" gradientUnits="userSpaceOnUse">
<stop stop-color="#FF6593"/>
<stop offset="1" stop-color="#171921"/>
</linearGradient>
<linearGradient id="paint23_linear_148_324" x1="475.979" y1="500" x2="568.565" y2="358.132" gradientUnits="userSpaceOnUse">
<stop stop-color="#F20091"/>
<stop offset="1" stop-color="#191C23" stop-opacity="0.2"/>
</linearGradient>
<linearGradient id="paint24_linear_148_324" x1="460" y1="500" x2="514.001" y2="397.515" gradientUnits="userSpaceOnUse">
<stop stop-color="#FF2976"/>
<stop offset="1" stop-color="#1B1B1F" stop-opacity="0"/>
</linearGradient>
<linearGradient id="paint25_linear_148_324" x1="1464" y1="500" x2="1649.62" y2="194.58" gradientUnits="userSpaceOnUse">
<stop stop-color="#480018"/>
<stop offset="1" stop-color="#140008" stop-opacity="0"/>
</linearGradient>
<linearGradient id="paint26_linear_148_324" x1="2464" y1="500" x2="2193" y2="287" gradientUnits="userSpaceOnUse">
<stop stop-color="#480018"/>
<stop offset="1" stop-color="#140008" stop-opacity="0"/>
</linearGradient>
<linearGradient id="paint27_linear_148_324" x1="1464" y1="500" x2="1535.46" y2="368.779" gradientUnits="userSpaceOnUse">
<stop stop-color="#FF6593"/>
<stop offset="1" stop-color="#171921"/>
</linearGradient>
<linearGradient id="paint28_linear_148_324" x1="1479.98" y1="500" x2="1572.56" y2="358.132" gradientUnits="userSpaceOnUse">
<stop stop-color="#F20091"/>
<stop offset="1" stop-color="#191C23" stop-opacity="0.2"/>
</linearGradient>
<linearGradient id="paint29_linear_148_324" x1="1464" y1="500" x2="1518" y2="397.515" gradientUnits="userSpaceOnUse">
<stop stop-color="#FF2976"/>
<stop offset="1" stop-color="#1B1B1F" stop-opacity="0"/>
</linearGradient>
<linearGradient id="paint30_linear_148_324" x1="2464" y1="1504" x2="2649.62" y2="1198.58" gradientUnits="userSpaceOnUse">
<stop stop-color="#480018"/>
<stop offset="1" stop-color="#140008" stop-opacity="0"/>
</linearGradient>
<linearGradient id="paint31_linear_148_324" x1="3464" y1="1504" x2="3193" y2="1291" gradientUnits="userSpaceOnUse">
<stop stop-color="#480018"/>
<stop offset="1" stop-color="#140008" stop-opacity="0"/>
</linearGradient>
<linearGradient id="paint32_linear_148_324" x1="2464" y1="1504" x2="2535.46" y2="1372.78" gradientUnits="userSpaceOnUse">
<stop stop-color="#FF6593"/>
<stop offset="1" stop-color="#171921"/>
</linearGradient>
<linearGradient id="paint33_linear_148_324" x1="2479.98" y1="1504" x2="2572.56" y2="1362.13" gradientUnits="userSpaceOnUse">
<stop stop-color="#F20091"/>
<stop offset="1" stop-color="#191C23" stop-opacity="0.2"/>
</linearGradient>
<linearGradient id="paint34_linear_148_324" x1="2464" y1="1504" x2="2518" y2="1401.51" gradientUnits="userSpaceOnUse">
<stop stop-color="#FF2976"/>
<stop offset="1" stop-color="#1B1B1F" stop-opacity="0"/>
</linearGradient>
<linearGradient id="paint35_linear_148_324" x1="1460" y1="1504" x2="1645.62" y2="1198.58" gradientUnits="userSpaceOnUse">
<stop stop-color="#480018"/>
<stop offset="1" stop-color="#140008" stop-opacity="0"/>
</linearGradient>
<linearGradient id="paint36_linear_148_324" x1="2460" y1="1504" x2="2189" y2="1291" gradientUnits="userSpaceOnUse">
<stop stop-color="#480018"/>
<stop offset="1" stop-color="#140008" stop-opacity="0"/>
</linearGradient>
<linearGradient id="paint37_linear_148_324" x1="1460" y1="1504" x2="1531.46" y2="1372.78" gradientUnits="userSpaceOnUse">
<stop stop-color="#FF6593"/>
<stop offset="1" stop-color="#171921"/>
</linearGradient>
<linearGradient id="paint38_linear_148_324" x1="1475.98" y1="1504" x2="1568.56" y2="1362.13" gradientUnits="userSpaceOnUse">
<stop stop-color="#F20091"/>
<stop offset="1" stop-color="#191C23" stop-opacity="0.2"/>
</linearGradient>
<linearGradient id="paint39_linear_148_324" x1="1460" y1="1504" x2="1514" y2="1401.51" gradientUnits="userSpaceOnUse">
<stop stop-color="#FF2976"/>
<stop offset="1" stop-color="#1B1B1F" stop-opacity="0"/>
</linearGradient>
<linearGradient id="paint40_linear_148_324" x1="456" y1="1504" x2="641.616" y2="1198.58" gradientUnits="userSpaceOnUse">
<stop stop-color="#480018"/>
<stop offset="1" stop-color="#140008" stop-opacity="0"/>
</linearGradient>
<linearGradient id="paint41_linear_148_324" x1="1456" y1="1504" x2="1185" y2="1291" gradientUnits="userSpaceOnUse">
<stop stop-color="#480018"/>
<stop offset="1" stop-color="#140008" stop-opacity="0"/>
</linearGradient>
<linearGradient id="paint42_linear_148_324" x1="456" y1="1504" x2="527.459" y2="1372.78" gradientUnits="userSpaceOnUse">
<stop stop-color="#FF6593"/>
<stop offset="1" stop-color="#171921"/>
</linearGradient>
<linearGradient id="paint43_linear_148_324" x1="471.979" y1="1504" x2="564.565" y2="1362.13" gradientUnits="userSpaceOnUse">
<stop stop-color="#F20091"/>
<stop offset="1" stop-color="#191C23" stop-opacity="0.2"/>
</linearGradient>
<linearGradient id="paint44_linear_148_324" x1="456" y1="1504" x2="510.001" y2="1401.51" gradientUnits="userSpaceOnUse">
<stop stop-color="#FF2976"/>
<stop offset="1" stop-color="#1B1B1F" stop-opacity="0"/>
</linearGradient>
<clipPath id="clip0_148_324">
<rect width="1920" height="1004" fill="white"/>
</clipPath>
</defs>
</svg>
